<svg xmlns="http://www.w3.org/2000/svg" width="32" height="32" viewBox="0 0 32 32">
  <rect width="32" height="32" rx="6" fill="#0f172a"/>
  <!-- M -->
  <path d="M4.5 23V9h1.2l4.8 8.5L15.3 9h1.2v14h-2.2V13.8L10.5 21h-.2L6.7 13.8V23z" fill="#34d399"/>
  <!-- S -->
  <path d="M19.2 20.6l1.4-1.7c1 .9 2.1 1.5 3.3 1.5 1.2 0 1.9-.6 1.9-1.4 0-.9-.6-1.2-2-1.8l-1.6-.7c-1.5-.6-2.7-1.6-2.7-3.4 0-2 1.6-3.5 4-3.5 1.5 0 2.8.5 3.8 1.5l-1.2 1.6c-.9-.7-1.7-1.1-2.6-1.1-1.1 0-1.7.5-1.7 1.3 0 .8.6 1.1 1.9 1.7l1.6.7c1.7.7 2.8 1.7 2.8 3.5 0 2.1-1.7 3.6-4.3 3.6-1.7 0-3.3-.7-4.6-2.1z" fill="#34d399"/>
</svg>
